<svg xmlns="http://www.w3.org/2000/svg" xmlns:xlink="http://www.w3.org/1999/xlink" width="500" zoomAndPan="magnify" viewBox="0 0 375 374.999991" height="500" preserveAspectRatio="xMidYMid meet" version="1.0"><defs><g/><clipPath id="2b4d560e72"><path d="M 0.792969 5.796875 L 47.578125 5.796875 L 47.578125 52.582031 L 0.792969 52.582031 Z M 0.792969 5.796875 " clip-rule="nonzero"/></clipPath><clipPath id="56485f7aa6"><path d="M 119 0.121094 L 147 0.121094 L 147 43 L 119 43 Z M 119 0.121094 " clip-rule="nonzero"/></clipPath><clipPath id="0369473978"><path d="M 262 0.121094 L 271 0.121094 L 271 43 L 262 43 Z M 262 0.121094 " clip-rule="nonzero"/></clipPath><clipPath id="684ab85016"><rect x="0" width="299" y="0" height="72"/></clipPath></defs><g transform="matrix(1, 0, 0, 1, 35, 153)"><g clip-path="url(#684ab85016)"><g clip-path="url(#2b4d560e72)"><path fill="#6e2af5" d="M 24.1875 52.582031 C 24.1875 36.984375 16.390625 29.191406 0.792969 29.191406 C 16.390625 29.191406 24.1875 21.394531 24.1875 5.796875 C 24.1875 21.394531 31.980469 29.191406 47.578125 29.191406 C 31.980469 29.191406 24.1875 36.984375 24.1875 52.582031 Z M 24.1875 52.582031 " fill-opacity="1" fill-rule="nonzero"/></g><g fill="#1b0b3e" fill-opacity="1"><g transform="translate(48.654524, 42.323702)"><g><path d="M 18.359375 -29.9375 C 17.609375 -31.894531 16.914062 -33.222656 16.28125 -33.921875 C 15.644531 -34.628906 15.035156 -35.101562 14.453125 -35.34375 L 14.453125 -36 L 22.328125 -36 L 22.328125 -35.34375 C 21.566406 -35.101562 21.253906 -34.628906 21.390625 -33.921875 C 21.535156 -33.222656 22 -31.910156 22.78125 -29.984375 L 25.5625 -23.203125 L 28.03125 -29.890625 C 28.6875 -31.597656 28.960938 -32.890625 28.859375 -33.765625 C 28.753906 -34.640625 28.273438 -35.164062 27.421875 -35.34375 L 27.421875 -36 L 33.078125 -36 L 33.078125 -35.34375 C 32.359375 -35.101562 31.671875 -34.617188 31.015625 -33.890625 C 30.367188 -33.171875 29.679688 -31.835938 28.953125 -29.890625 L 26.078125 -22.015625 L 33.015625 -5.1875 L 41.96875 -29.890625 C 43.164062 -33.140625 42.894531 -34.957031 41.15625 -35.34375 L 41.15625 -36 L 46.96875 -36 L 46.96875 -35.34375 C 46.238281 -35.101562 45.546875 -34.617188 44.890625 -33.890625 C 44.242188 -33.171875 43.5625 -31.835938 42.84375 -29.890625 L 32.09375 0 L 30.65625 0 L 23.5 -17.4375 L 16.40625 0 L 14.96875 0 L 3.59375 -29.890625 C 2.84375 -31.878906 2.164062 -33.222656 1.5625 -33.921875 C 0.96875 -34.628906 0.378906 -35.101562 -0.203125 -35.34375 L -0.203125 -36 L 7.765625 -36 L 7.765625 -35.34375 C 6.972656 -35.101562 6.628906 -34.628906 6.734375 -33.921875 C 6.835938 -33.222656 7.269531 -31.878906 8.03125 -29.890625 L 17.546875 -5.09375 L 23.046875 -18.5625 Z M 18.359375 -29.9375 "/></g></g></g><g fill="#1b0b3e" fill-opacity="1"><g transform="translate(90.673519, 42.323702)"><g><path d="M 14.046875 0.515625 C 12.640625 0.515625 11.210938 0.257812 9.765625 -0.25 C 8.328125 -0.769531 7.007812 -1.550781 5.8125 -2.59375 C 4.613281 -3.644531 3.65625 -4.957031 2.9375 -6.53125 C 2.21875 -8.113281 1.859375 -9.96875 1.859375 -12.09375 C 1.859375 -14.90625 2.484375 -17.351562 3.734375 -19.4375 C 4.984375 -21.53125 6.632812 -23.160156 8.6875 -24.328125 C 10.75 -25.492188 12.976562 -26.078125 15.375 -26.078125 C 17.539062 -26.078125 19.382812 -25.65625 20.90625 -24.8125 C 22.4375 -23.976562 23.617188 -22.875 24.453125 -21.5 C 25.296875 -20.125 25.734375 -18.613281 25.765625 -16.96875 L 5.65625 -16.96875 C 5.550781 -16.21875 5.5 -15.429688 5.5 -14.609375 C 5.5 -12.273438 5.953125 -10.207031 6.859375 -8.40625 C 7.773438 -6.601562 9.0625 -5.203125 10.71875 -4.203125 C 12.382812 -3.210938 14.332031 -2.71875 16.5625 -2.71875 C 18.550781 -2.71875 20.28125 -3.128906 21.75 -3.953125 C 23.226562 -4.773438 24.550781 -5.859375 25.71875 -7.203125 L 26.1875 -6.734375 C 25.320312 -5.535156 24.289062 -4.378906 23.09375 -3.265625 C 21.894531 -2.148438 20.546875 -1.238281 19.046875 -0.53125 C 17.554688 0.164062 15.890625 0.515625 14.046875 0.515625 Z M 5.8125 -17.640625 L 21.65625 -17.640625 C 21.476562 -18.804688 21.054688 -19.960938 20.390625 -21.109375 C 19.722656 -22.265625 18.832031 -23.226562 17.71875 -24 C 16.601562 -24.769531 15.257812 -25.15625 13.6875 -25.15625 C 11.488281 -25.1875 9.726562 -24.484375 8.40625 -23.046875 C 7.09375 -21.609375 6.226562 -19.804688 5.8125 -17.640625 Z M 5.8125 -17.640625 "/></g></g></g><g clip-path="url(#56485f7aa6)"><g fill="#1b0b3e" fill-opacity="1"><g transform="translate(118.292221, 42.323702)"><g><path d="M 15.078125 0.46875 C 13.148438 0.46875 11.351562 0.0820312 9.6875 -0.6875 C 8.03125 -1.46875 6.738281 -2.351562 5.8125 -3.34375 L 4.109375 0 L 3.59375 0 L 3.59375 -33.796875 C 3.59375 -34.992188 3.515625 -35.890625 3.359375 -36.484375 C 3.210938 -37.085938 2.992188 -37.523438 2.703125 -37.796875 C 2.410156 -38.078125 2.023438 -38.320312 1.546875 -38.53125 L 1.546875 -39.09375 L 7.15625 -41.5625 L 7.609375 -41.203125 L 7.609375 -22.578125 C 8.984375 -23.503906 10.484375 -24.316406 12.109375 -25.015625 C 13.742188 -25.722656 15.453125 -26.078125 17.234375 -26.078125 C 19.429688 -26.078125 21.367188 -25.535156 23.046875 -24.453125 C 24.722656 -23.378906 26.039062 -21.898438 27 -20.015625 C 27.957031 -18.128906 28.4375 -15.96875 28.4375 -13.53125 C 28.4375 -11.164062 27.921875 -8.914062 26.890625 -6.78125 C 25.867188 -4.65625 24.363281 -2.925781 22.375 -1.59375 C 20.382812 -0.257812 17.953125 0.425781 15.078125 0.46875 Z M 7.609375 -8.6875 C 7.609375 -7.457031 8.035156 -6.21875 8.890625 -4.96875 C 9.753906 -3.71875 10.878906 -2.671875 12.265625 -1.828125 C 13.648438 -0.984375 15.132812 -0.5625 16.71875 -0.5625 C 19.394531 -0.5625 21.382812 -1.476562 22.6875 -3.3125 C 23.988281 -5.144531 24.640625 -7.554688 24.640625 -10.546875 C 24.640625 -11.984375 24.46875 -13.5 24.125 -15.09375 C 23.78125 -16.6875 23.222656 -18.1875 22.453125 -19.59375 C 21.679688 -21 20.671875 -22.144531 19.421875 -23.03125 C 18.171875 -23.925781 16.632812 -24.375 14.8125 -24.375 C 13.476562 -24.375 12.207031 -24.125 11 -23.625 C 9.800781 -23.132812 8.671875 -22.53125 7.609375 -21.8125 Z M 7.609375 -8.6875 "/></g></g></g></g><g fill="#1b0b3e" fill-opacity="1"><g transform="translate(148.945386, 42.323702)"><g><path d="M 28.8125 0.359375 C 27.5 0.359375 26.46875 0.0390625 25.71875 -0.59375 C 24.96875 -1.226562 24.304688 -2.148438 23.734375 -3.359375 C 23.171875 -4.578125 22.515625 -6.082031 21.765625 -7.875 C 21.003906 -9.65625 20.363281 -11.210938 19.84375 -12.546875 C 19.332031 -13.890625 18.773438 -15.003906 18.171875 -15.890625 C 17.578125 -16.785156 16.816406 -17.453125 15.890625 -17.890625 C 14.960938 -18.335938 13.726562 -18.5625 12.1875 -18.5625 L 8.90625 -18.5625 L 8.90625 -6.53125 C 8.90625 -4.4375 9.046875 -2.992188 9.328125 -2.203125 C 9.617188 -1.421875 10.160156 -0.910156 10.953125 -0.671875 L 10.953125 0 L 2.625 0 L 2.625 -0.671875 C 3.414062 -0.910156 3.957031 -1.421875 4.25 -2.203125 C 4.539062 -2.992188 4.6875 -4.4375 4.6875 -6.53125 L 4.6875 -29.46875 C 4.6875 -31.59375 4.539062 -33.039062 4.25 -33.8125 C 3.957031 -34.59375 3.414062 -35.101562 2.625 -35.34375 L 2.625 -36 L 12.75 -36 C 16.25 -36 18.972656 -35.644531 20.921875 -34.9375 C 22.878906 -34.238281 24.257812 -33.289062 25.0625 -32.09375 C 25.875 -30.894531 26.28125 -29.523438 26.28125 -27.984375 C 26.28125 -25.578125 25.421875 -23.523438 23.703125 -21.828125 C 21.992188 -20.140625 19.457031 -19.101562 16.09375 -18.71875 C 17.675781 -18.519531 18.960938 -18.171875 19.953125 -17.671875 C 20.953125 -17.171875 21.773438 -16.5 22.421875 -15.65625 C 23.078125 -14.820312 23.660156 -13.800781 24.171875 -12.59375 C 24.691406 -11.394531 25.257812 -10.007812 25.875 -8.4375 C 26.695312 -6.375 27.390625 -4.773438 27.953125 -3.640625 C 28.523438 -2.515625 29.050781 -1.71875 29.53125 -1.25 C 30.007812 -0.789062 30.539062 -0.5625 31.125 -0.5625 C 31.289062 -0.5625 31.429688 -0.5625 31.546875 -0.5625 C 31.671875 -0.5625 31.800781 -0.582031 31.9375 -0.625 L 31.9375 0 C 31.5625 0.132812 31.070312 0.226562 30.46875 0.28125 C 29.875 0.332031 29.320312 0.359375 28.8125 0.359375 Z M 8.90625 -19.34375 L 13.21875 -19.34375 C 16.164062 -19.34375 18.347656 -20.035156 19.765625 -21.421875 C 21.191406 -22.804688 21.90625 -24.597656 21.90625 -26.796875 C 21.90625 -28.335938 21.550781 -29.742188 20.84375 -31.015625 C 20.144531 -32.285156 19.015625 -33.304688 17.453125 -34.078125 C 15.898438 -34.847656 13.851562 -35.234375 11.3125 -35.234375 C 10.9375 -35.234375 10.539062 -35.222656 10.125 -35.203125 C 9.71875 -35.191406 9.3125 -35.164062 8.90625 -35.125 Z M 8.90625 -19.34375 "/></g></g></g><g fill="#1b0b3e" fill-opacity="1"><g transform="translate(179.341271, 42.323702)"><g><path d="M 14.046875 0.515625 C 12.640625 0.515625 11.210938 0.257812 9.765625 -0.25 C 8.328125 -0.769531 7.007812 -1.550781 5.8125 -2.59375 C 4.613281 -3.644531 3.65625 -4.957031 2.9375 -6.53125 C 2.21875 -8.113281 1.859375 -9.96875 1.859375 -12.09375 C 1.859375 -14.90625 2.484375 -17.351562 3.734375 -19.4375 C 4.984375 -21.53125 6.632812 -23.160156 8.6875 -24.328125 C 10.75 -25.492188 12.976562 -26.078125 15.375 -26.078125 C 17.539062 -26.078125 19.382812 -25.65625 20.90625 -24.8125 C 22.4375 -23.976562 23.617188 -22.875 24.453125 -21.5 C 25.296875 -20.125 25.734375 -18.613281 25.765625 -16.96875 L 5.65625 -16.96875 C 5.550781 -16.21875 5.5 -15.429688 5.5 -14.609375 C 5.5 -12.273438 5.953125 -10.207031 6.859375 -8.40625 C 7.773438 -6.601562 9.0625 -5.203125 10.71875 -4.203125 C 12.382812 -3.210938 14.332031 -2.71875 16.5625 -2.71875 C 18.550781 -2.71875 20.28125 -3.128906 21.75 -3.953125 C 23.226562 -4.773438 24.550781 -5.859375 25.71875 -7.203125 L 26.1875 -6.734375 C 25.320312 -5.535156 24.289062 -4.378906 23.09375 -3.265625 C 21.894531 -2.148438 20.546875 -1.238281 19.046875 -0.53125 C 17.554688 0.164062 15.890625 0.515625 14.046875 0.515625 Z M 5.8125 -17.640625 L 21.65625 -17.640625 C 21.476562 -18.804688 21.054688 -19.960938 20.390625 -21.109375 C 19.722656 -22.265625 18.832031 -23.226562 17.71875 -24 C 16.601562 -24.769531 15.257812 -25.15625 13.6875 -25.15625 C 11.488281 -25.1875 9.726562 -24.484375 8.40625 -23.046875 C 7.09375 -21.609375 6.226562 -19.804688 5.8125 -17.640625 Z M 5.8125 -17.640625 "/></g></g></g><g fill="#1b0b3e" fill-opacity="1"><g transform="translate(206.959973, 42.323702)"><g><path d="M 11.625 0.46875 C 9.5625 0.46875 7.695312 0.210938 6.03125 -0.296875 C 4.375 -0.816406 3.117188 -1.351562 2.265625 -1.90625 L 1.796875 -8.125 L 2.265625 -8.234375 C 3.359375 -5.796875 4.796875 -3.878906 6.578125 -2.484375 C 8.367188 -1.097656 10.425781 -0.390625 12.75 -0.359375 C 14.363281 -0.359375 15.691406 -0.796875 16.734375 -1.671875 C 17.785156 -2.546875 18.3125 -3.703125 18.3125 -5.140625 C 18.3125 -6.378906 17.957031 -7.375 17.25 -8.125 C 16.550781 -8.882812 15.625 -9.503906 14.46875 -9.984375 C 13.320312 -10.460938 12.082031 -10.90625 10.75 -11.3125 C 9.132812 -11.832031 7.691406 -12.375 6.421875 -12.9375 C 5.160156 -13.5 4.164062 -14.242188 3.4375 -15.171875 C 2.71875 -16.097656 2.359375 -17.332031 2.359375 -18.875 C 2.359375 -20.894531 3.171875 -22.597656 4.796875 -23.984375 C 6.429688 -25.378906 8.742188 -26.078125 11.734375 -26.078125 C 13.410156 -26.078125 14.957031 -25.929688 16.375 -25.640625 C 17.800781 -25.347656 18.910156 -25.03125 19.703125 -24.6875 L 19.90625 -19.4375 L 19.390625 -19.34375 C 18.566406 -21.195312 17.382812 -22.671875 15.84375 -23.765625 C 14.300781 -24.859375 12.617188 -25.40625 10.796875 -25.40625 C 9.046875 -25.40625 7.648438 -25.007812 6.609375 -24.21875 C 5.566406 -23.4375 5.046875 -22.394531 5.046875 -21.09375 C 5.046875 -20.03125 5.378906 -19.132812 6.046875 -18.40625 C 6.710938 -17.6875 7.601562 -17.078125 8.71875 -16.578125 C 9.832031 -16.085938 11.054688 -15.617188 12.390625 -15.171875 C 13.390625 -14.867188 14.394531 -14.535156 15.40625 -14.171875 C 16.414062 -13.804688 17.335938 -13.359375 18.171875 -12.828125 C 19.015625 -12.296875 19.703125 -11.609375 20.234375 -10.765625 C 20.765625 -9.929688 21.03125 -8.863281 21.03125 -7.5625 C 21.03125 -6.125 20.675781 -4.796875 19.96875 -3.578125 C 19.269531 -2.359375 18.21875 -1.390625 16.8125 -0.671875 C 15.414062 0.046875 13.6875 0.425781 11.625 0.46875 Z M 11.625 0.46875 "/></g></g></g><g fill="#1b0b3e" fill-opacity="1"><g transform="translate(229.846978, 42.323702)"><g><path d="M 15.328125 0.515625 C 13.679688 0.515625 12.0625 0.257812 10.46875 -0.25 C 8.875 -0.769531 7.425781 -1.5625 6.125 -2.625 C 4.820312 -3.6875 3.785156 -5.039062 3.015625 -6.6875 C 2.242188 -8.332031 1.859375 -10.269531 1.859375 -12.5 C 1.859375 -15.175781 2.488281 -17.53125 3.75 -19.5625 C 5.019531 -21.601562 6.679688 -23.195312 8.734375 -24.34375 C 10.796875 -25.5 12.992188 -26.078125 15.328125 -26.078125 C 16.941406 -26.078125 18.535156 -25.828125 20.109375 -25.328125 C 21.691406 -24.835938 23.132812 -24.054688 24.4375 -22.984375 C 25.738281 -21.921875 26.78125 -20.566406 27.5625 -18.921875 C 28.351562 -17.273438 28.75 -15.304688 28.75 -13.015625 C 28.75 -10.816406 28.347656 -8.878906 27.546875 -7.203125 C 26.742188 -5.523438 25.671875 -4.109375 24.328125 -2.953125 C 22.992188 -1.804688 21.535156 -0.941406 19.953125 -0.359375 C 18.378906 0.222656 16.835938 0.515625 15.328125 0.515625 Z M 5.8125 -15.4375 C 5.8125 -13.789062 6.066406 -12.097656 6.578125 -10.359375 C 7.097656 -8.628906 7.835938 -7.023438 8.796875 -5.546875 C 9.753906 -4.078125 10.910156 -2.878906 12.265625 -1.953125 C 13.617188 -1.023438 15.15625 -0.5625 16.875 -0.5625 C 18.726562 -0.5625 20.234375 -1 21.390625 -1.875 C 22.554688 -2.75 23.421875 -3.90625 23.984375 -5.34375 C 24.554688 -6.789062 24.84375 -8.335938 24.84375 -9.984375 C 24.84375 -11.628906 24.566406 -13.347656 24.015625 -15.140625 C 23.472656 -16.941406 22.691406 -18.613281 21.671875 -20.15625 C 20.660156 -21.707031 19.453125 -22.941406 18.046875 -23.859375 C 16.648438 -24.785156 15.109375 -25.195312 13.421875 -25.09375 C 11.671875 -25.03125 10.226562 -24.550781 9.09375 -23.65625 C 7.96875 -22.769531 7.140625 -21.601562 6.609375 -20.15625 C 6.078125 -18.71875 5.8125 -17.144531 5.8125 -15.4375 Z M 5.8125 -15.4375 "/></g></g></g><g clip-path="url(#0369473978)"><g fill="#1b0b3e" fill-opacity="1"><g transform="translate(260.294352, 42.323702)"><g><path d="M 1.953125 0 L 1.953125 -0.671875 C 2.742188 -0.910156 3.285156 -1.421875 3.578125 -2.203125 C 3.867188 -2.992188 4.015625 -4.4375 4.015625 -6.53125 L 4.015625 -33.796875 C 4.015625 -34.992188 3.9375 -35.890625 3.78125 -36.484375 C 3.625 -37.085938 3.398438 -37.523438 3.109375 -37.796875 C 2.816406 -38.078125 2.429688 -38.320312 1.953125 -38.53125 L 1.953125 -39.09375 L 7.5625 -41.5625 L 8.03125 -41.203125 L 8.03125 -6.53125 C 8.03125 -4.4375 8.175781 -2.992188 8.46875 -2.203125 C 8.757812 -1.421875 9.296875 -0.910156 10.078125 -0.671875 L 10.078125 0 Z M 1.953125 0 "/></g></g></g></g><g fill="#1b0b3e" fill-opacity="1"><g transform="translate(271.969244, 42.323702)"><g><path d="M 3.34375 -19.703125 C 2.550781 -21.617188 1.890625 -22.925781 1.359375 -23.625 C 0.828125 -24.332031 0.289062 -24.804688 -0.25 -25.046875 L -0.25 -25.71875 L 7.15625 -25.71875 L 7.15625 -25.046875 C 6.394531 -24.804688 6.082031 -24.332031 6.21875 -23.625 C 6.363281 -22.925781 6.847656 -21.617188 7.671875 -19.703125 L 14.40625 -3.75 L 20.46875 -19.59375 C 21.125 -21.3125 21.390625 -22.609375 21.265625 -23.484375 C 21.148438 -24.359375 20.644531 -24.878906 19.75 -25.046875 L 19.75 -25.71875 L 25.046875 -25.71875 L 25.046875 -25.046875 C 24.328125 -24.804688 23.707031 -24.332031 23.1875 -23.625 C 22.675781 -22.925781 22.046875 -21.582031 21.296875 -19.59375 L 13.734375 0 L 11.578125 0 Z M 3.34375 -19.703125 "/></g></g></g><g fill="#1b0b3e" fill-opacity="1"><g transform="translate(167.300304, 65.369233)"><g><path d="M 1.015625 -0.609375 C 1.453125 -0.617188 1.757812 -0.71875 1.9375 -0.90625 C 2.125 -1.09375 2.226562 -1.3125 2.25 -1.5625 C 2.28125 -1.8125 2.296875 -2.253906 2.296875 -2.890625 L 2.296875 -10.890625 C 2.296875 -11.410156 2.3125 -11.851562 2.34375 -12.21875 L 1.015625 -12.140625 L 1.015625 -12.953125 L 5.390625 -12.984375 C 7.710938 -12.992188 9.550781 -12.445312 10.90625 -11.34375 C 12.257812 -10.25 12.9375 -8.625 12.9375 -6.46875 C 12.9375 -5.300781 12.664062 -4.222656 12.125 -3.234375 C 11.582031 -2.253906 10.78125 -1.46875 9.71875 -0.875 C 8.65625 -0.289062 7.378906 0 5.890625 0 L 1.015625 0 Z M 5.828125 -0.703125 C 6.867188 -0.703125 7.789062 -0.953125 8.59375 -1.453125 C 9.394531 -1.960938 10.015625 -2.660156 10.453125 -3.546875 C 10.898438 -4.441406 11.125 -5.4375 11.125 -6.53125 C 11.125 -8.332031 10.628906 -9.742188 9.640625 -10.765625 C 8.660156 -11.785156 7.175781 -12.296875 5.1875 -12.296875 C 4.75 -12.296875 4.4375 -12.207031 4.25 -12.03125 C 4.070312 -11.863281 3.96875 -11.648438 3.9375 -11.390625 C 3.914062 -11.140625 3.90625 -10.703125 3.90625 -10.078125 L 3.90625 -2.1875 C 3.90625 -1.539062 3.882812 -1.054688 3.84375 -0.734375 C 4.28125 -0.710938 4.941406 -0.703125 5.828125 -0.703125 Z M 5.828125 -0.703125 "/></g></g></g><g fill="#1b0b3e" fill-opacity="1"><g transform="translate(181.096531, 65.369233)"><g><path d="M 2.640625 -11.28125 C 2.390625 -11.28125 2.164062 -11.382812 1.96875 -11.59375 C 1.769531 -11.8125 1.671875 -12.070312 1.671875 -12.375 C 1.671875 -12.664062 1.769531 -12.921875 1.96875 -13.140625 C 2.175781 -13.367188 2.410156 -13.484375 2.671875 -13.484375 C 2.953125 -13.484375 3.1875 -13.375 3.375 -13.15625 C 3.570312 -12.9375 3.671875 -12.675781 3.671875 -12.375 C 3.671875 -12.070312 3.566406 -11.8125 3.359375 -11.59375 C 3.160156 -11.382812 2.921875 -11.28125 2.640625 -11.28125 Z M 0.8125 -0.5625 C 1.175781 -0.5625 1.429688 -0.648438 1.578125 -0.828125 C 1.734375 -1.003906 1.828125 -1.226562 1.859375 -1.5 C 1.890625 -1.78125 1.90625 -2.21875 1.90625 -2.8125 L 1.90625 -7.03125 C 1.90625 -7.394531 1.929688 -7.796875 1.984375 -8.234375 L 0.671875 -8.171875 L 0.671875 -8.9375 C 1.398438 -8.9375 1.921875 -8.976562 2.234375 -9.0625 C 2.546875 -9.15625 2.789062 -9.28125 2.96875 -9.4375 L 3.5 -9.4375 L 3.5 -1.96875 C 3.5 -1.40625 3.472656 -0.984375 3.421875 -0.703125 L 4.59375 -0.765625 L 4.59375 0 L 0.8125 0 Z M 0.8125 -0.5625 "/></g></g></g><g fill="#1b0b3e" fill-opacity="1"><g transform="translate(186.300212, 65.369233)"><g><path d="M 5.28125 5.015625 C 4.21875 5.015625 3.335938 4.894531 2.640625 4.65625 C 1.953125 4.425781 1.445312 4.117188 1.125 3.734375 C 0.800781 3.359375 0.640625 2.953125 0.640625 2.515625 C 0.640625 1.992188 0.8125 1.539062 1.15625 1.15625 C 1.507812 0.769531 1.90625 0.484375 2.34375 0.296875 C 1.925781 0.160156 1.609375 -0.0195312 1.390625 -0.25 C 1.179688 -0.488281 1.078125 -0.796875 1.078125 -1.171875 C 1.078125 -1.609375 1.25 -2.007812 1.59375 -2.375 C 1.945312 -2.75 2.390625 -2.984375 2.921875 -3.078125 C 2.347656 -3.347656 1.894531 -3.722656 1.5625 -4.203125 C 1.226562 -4.691406 1.0625 -5.253906 1.0625 -5.890625 C 1.0625 -6.609375 1.25 -7.242188 1.625 -7.796875 C 2 -8.347656 2.484375 -8.773438 3.078125 -9.078125 C 3.679688 -9.390625 4.3125 -9.546875 4.96875 -9.546875 C 5.800781 -9.546875 6.582031 -9.320312 7.3125 -8.875 C 7.5 -9.40625 7.796875 -9.835938 8.203125 -10.171875 C 8.617188 -10.503906 9.066406 -10.671875 9.546875 -10.671875 C 9.859375 -10.671875 10.097656 -10.585938 10.265625 -10.421875 C 10.441406 -10.253906 10.53125 -10.023438 10.53125 -9.734375 C 10.53125 -9.566406 10.460938 -9.398438 10.328125 -9.234375 C 10.203125 -9.066406 10.019531 -8.984375 9.78125 -8.984375 C 9.570312 -8.984375 9.390625 -9.039062 9.234375 -9.15625 C 9.085938 -9.28125 9 -9.4375 8.96875 -9.625 C 8.664062 -9.59375 8.425781 -9.460938 8.25 -9.234375 C 8.082031 -9.003906 7.960938 -8.726562 7.890625 -8.40625 C 8.191406 -8.125 8.429688 -7.789062 8.609375 -7.40625 C 8.785156 -7.019531 8.875 -6.617188 8.875 -6.203125 C 8.875 -5.523438 8.691406 -4.914062 8.328125 -4.375 C 7.972656 -3.832031 7.492188 -3.40625 6.890625 -3.09375 C 6.296875 -2.78125 5.65625 -2.625 4.96875 -2.625 C 4.800781 -2.625 4.59375 -2.640625 4.34375 -2.671875 C 4.164062 -2.703125 3.957031 -2.71875 3.71875 -2.71875 C 3.3125 -2.71875 2.96875 -2.628906 2.6875 -2.453125 C 2.414062 -2.273438 2.28125 -2.054688 2.28125 -1.796875 C 2.28125 -1.441406 2.503906 -1.203125 2.953125 -1.078125 C 3.398438 -0.960938 4.171875 -0.890625 5.265625 -0.859375 C 6.773438 -0.773438 7.910156 -0.523438 8.671875 -0.109375 C 9.429688 0.296875 9.8125 0.972656 9.8125 1.921875 C 9.8125 2.554688 9.59375 3.109375 9.15625 3.578125 C 8.71875 4.046875 8.148438 4.398438 7.453125 4.640625 C 6.753906 4.890625 6.03125 5.015625 5.28125 5.015625 Z M 5.015625 -3.296875 C 5.679688 -3.296875 6.191406 -3.53125 6.546875 -4 C 6.898438 -4.46875 7.078125 -5.078125 7.078125 -5.828125 C 7.078125 -6.691406 6.882812 -7.421875 6.5 -8.015625 C 6.125 -8.609375 5.597656 -8.90625 4.921875 -8.90625 C 4.265625 -8.90625 3.75 -8.660156 3.375 -8.171875 C 3.007812 -7.679688 2.828125 -7.054688 2.828125 -6.296875 C 2.828125 -5.390625 3.019531 -4.660156 3.40625 -4.109375 C 3.800781 -3.566406 4.335938 -3.296875 5.015625 -3.296875 Z M 5.265625 4.296875 C 5.941406 4.296875 6.535156 4.207031 7.046875 4.03125 C 7.554688 3.851562 7.945312 3.609375 8.21875 3.296875 C 8.488281 2.992188 8.625 2.664062 8.625 2.3125 C 8.625 1.6875 8.320312 1.253906 7.71875 1.015625 C 7.125 0.785156 6.242188 0.648438 5.078125 0.609375 C 4.296875 0.585938 3.660156 0.539062 3.171875 0.46875 C 2.835938 0.6875 2.578125 0.957031 2.390625 1.28125 C 2.203125 1.601562 2.109375 1.941406 2.109375 2.296875 C 2.109375 2.898438 2.394531 3.382812 2.96875 3.75 C 3.539062 4.113281 4.304688 4.296875 5.265625 4.296875 Z M 5.265625 4.296875 "/></g></g></g><g fill="#1b0b3e" fill-opacity="1"><g transform="translate(196.985411, 65.369233)"><g><path d="M 2.640625 -11.28125 C 2.390625 -11.28125 2.164062 -11.382812 1.96875 -11.59375 C 1.769531 -11.8125 1.671875 -12.070312 1.671875 -12.375 C 1.671875 -12.664062 1.769531 -12.921875 1.96875 -13.140625 C 2.175781 -13.367188 2.410156 -13.484375 2.671875 -13.484375 C 2.953125 -13.484375 3.1875 -13.375 3.375 -13.15625 C 3.570312 -12.9375 3.671875 -12.675781 3.671875 -12.375 C 3.671875 -12.070312 3.566406 -11.8125 3.359375 -11.59375 C 3.160156 -11.382812 2.921875 -11.28125 2.640625 -11.28125 Z M 0.8125 -0.5625 C 1.175781 -0.5625 1.429688 -0.648438 1.578125 -0.828125 C 1.734375 -1.003906 1.828125 -1.226562 1.859375 -1.5 C 1.890625 -1.78125 1.90625 -2.21875 1.90625 -2.8125 L 1.90625 -7.03125 C 1.90625 -7.394531 1.929688 -7.796875 1.984375 -8.234375 L 0.671875 -8.171875 L 0.671875 -8.9375 C 1.398438 -8.9375 1.921875 -8.976562 2.234375 -9.0625 C 2.546875 -9.15625 2.789062 -9.28125 2.96875 -9.4375 L 3.5 -9.4375 L 3.5 -1.96875 C 3.5 -1.40625 3.472656 -0.984375 3.421875 -0.703125 L 4.59375 -0.765625 L 4.59375 0 L 0.8125 0 Z M 0.8125 -0.5625 "/></g></g></g><g fill="#1b0b3e" fill-opacity="1"><g transform="translate(202.485433, 65.369233)"><g><path d="M 4.296875 0.296875 C 2.609375 0.296875 1.769531 -0.835938 1.78125 -3.109375 L 1.8125 -8.484375 L 0.390625 -8.46875 L 0.390625 -9.25 C 0.984375 -9.269531 1.484375 -9.539062 1.890625 -10.0625 C 2.304688 -10.582031 2.613281 -11.175781 2.8125 -11.84375 L 3.4375 -11.84375 L 3.4375 -9.25 L 6.546875 -9.25 L 6.546875 -8.53125 L 3.4375 -8.5 C 3.425781 -6.613281 3.414062 -5.304688 3.40625 -4.578125 C 3.40625 -3.847656 3.40625 -3.4375 3.40625 -3.34375 C 3.40625 -2.46875 3.507812 -1.816406 3.71875 -1.390625 C 3.925781 -0.972656 4.289062 -0.765625 4.8125 -0.765625 C 5.132812 -0.765625 5.453125 -0.863281 5.765625 -1.0625 C 6.078125 -1.257812 6.351562 -1.53125 6.59375 -1.875 L 7.09375 -1.46875 C 6.613281 -0.75 6.140625 -0.273438 5.671875 -0.046875 C 5.203125 0.179688 4.742188 0.296875 4.296875 0.296875 Z M 4.296875 0.296875 "/></g></g></g><g fill="#1b0b3e" fill-opacity="1"><g transform="translate(209.652065, 65.369233)"><g><path d="M 3.40625 0.296875 C 2.507812 0.296875 1.820312 0.09375 1.34375 -0.3125 C 0.863281 -0.71875 0.625 -1.25 0.625 -1.90625 C 0.625 -2.625 0.910156 -3.226562 1.484375 -3.71875 C 2.054688 -4.21875 2.78125 -4.585938 3.65625 -4.828125 C 4.53125 -5.066406 5.40625 -5.179688 6.28125 -5.171875 L 6.28125 -6.3125 C 6.28125 -7.113281 6.160156 -7.738281 5.921875 -8.1875 C 5.691406 -8.644531 5.191406 -8.875 4.421875 -8.875 C 4.035156 -8.875 3.671875 -8.789062 3.328125 -8.625 C 2.984375 -8.46875 2.734375 -8.226562 2.578125 -7.90625 C 2.734375 -7.726562 2.8125 -7.492188 2.8125 -7.203125 C 2.8125 -7.015625 2.742188 -6.835938 2.609375 -6.671875 C 2.472656 -6.503906 2.273438 -6.421875 2.015625 -6.421875 C 1.753906 -6.421875 1.550781 -6.503906 1.40625 -6.671875 C 1.257812 -6.835938 1.1875 -7.054688 1.1875 -7.328125 C 1.1875 -7.734375 1.34375 -8.109375 1.65625 -8.453125 C 1.96875 -8.796875 2.40625 -9.0625 2.96875 -9.25 C 3.53125 -9.445312 4.15625 -9.546875 4.84375 -9.546875 C 5.882812 -9.546875 6.648438 -9.269531 7.140625 -8.71875 C 7.640625 -8.175781 7.882812 -7.3125 7.875 -6.125 L 7.84375 -1.96875 C 7.84375 -1.570312 7.820312 -1.148438 7.78125 -0.703125 L 9.09375 -0.78125 L 9.09375 0 L 6.4375 0 C 6.40625 -0.1875 6.363281 -0.539062 6.3125 -1.0625 C 5.414062 -0.15625 4.445312 0.296875 3.40625 0.296875 Z M 3.828125 -0.765625 C 4.296875 -0.765625 4.722656 -0.851562 5.109375 -1.03125 C 5.492188 -1.207031 5.882812 -1.476562 6.28125 -1.84375 C 6.269531 -2.03125 6.265625 -2.347656 6.265625 -2.796875 L 6.28125 -4.53125 C 5.269531 -4.5 4.367188 -4.289062 3.578125 -3.90625 C 2.785156 -3.53125 2.390625 -2.957031 2.390625 -2.1875 C 2.390625 -1.726562 2.523438 -1.375 2.796875 -1.125 C 3.066406 -0.882812 3.410156 -0.765625 3.828125 -0.765625 Z M 3.828125 -0.765625 "/></g></g></g><g fill="#1b0b3e" fill-opacity="1"><g transform="translate(219.207581, 65.369233)"><g><path d="M 0.625 -0.5625 C 0.988281 -0.5625 1.242188 -0.648438 1.390625 -0.828125 C 1.546875 -1.003906 1.640625 -1.226562 1.671875 -1.5 C 1.703125 -1.78125 1.71875 -2.21875 1.71875 -2.8125 L 1.71875 -11.578125 C 1.71875 -12.046875 1.738281 -12.445312 1.78125 -12.78125 L 0.46875 -12.703125 L 0.46875 -13.484375 C 1.207031 -13.484375 1.734375 -13.523438 2.046875 -13.609375 C 2.359375 -13.691406 2.601562 -13.816406 2.78125 -13.984375 L 3.3125 -13.984375 L 3.328125 -1.96875 C 3.328125 -1.476562 3.296875 -1.054688 3.234375 -0.703125 L 4.40625 -0.765625 L 4.40625 0 L 0.625 0 Z M 0.625 -0.5625 "/></g></g></g><g fill="#1b0b3e" fill-opacity="1"><g transform="translate(224.244605, 65.369233)"><g/></g></g><g fill="#1b0b3e" fill-opacity="1"><g transform="translate(229.114953, 65.369233)"><g><path d="M -0.109375 -0.609375 C 0.203125 -0.609375 0.445312 -0.675781 0.625 -0.8125 C 0.8125 -0.957031 0.960938 -1.144531 1.078125 -1.375 C 1.203125 -1.601562 1.34375 -1.945312 1.5 -2.40625 L 1.6875 -2.921875 L 5.5 -13.3125 L 5.9375 -13.3125 L 10.078125 -2.78125 C 10.210938 -2.445312 10.328125 -2.082031 10.421875 -1.6875 C 10.523438 -1.300781 10.566406 -0.984375 10.546875 -0.734375 L 11.8125 -0.8125 L 11.8125 0 L 7.578125 0 L 7.578125 -0.609375 C 8.304688 -0.617188 8.671875 -0.914062 8.671875 -1.5 C 8.671875 -1.726562 8.609375 -2.019531 8.484375 -2.375 L 7.828125 -4.109375 L 3.015625 -4 C 2.828125 -3.488281 2.613281 -2.828125 2.375 -2.015625 C 2.25 -1.609375 2.09375 -1.179688 1.90625 -0.734375 L 3.34375 -0.8125 L 3.34375 0 L -0.109375 0 Z M 7.578125 -4.796875 L 6.265625 -8.328125 L 5.421875 -10.609375 L 5.390625 -10.609375 L 4.609375 -8.515625 L 3.609375 -5.703125 L 3.296875 -4.796875 Z M 7.578125 -4.796875 "/></g></g></g><g fill="#1b0b3e" fill-opacity="1"><g transform="translate(240.707496, 65.369233)"><g><path d="M 5.28125 5.015625 C 4.21875 5.015625 3.335938 4.894531 2.640625 4.65625 C 1.953125 4.425781 1.445312 4.117188 1.125 3.734375 C 0.800781 3.359375 0.640625 2.953125 0.640625 2.515625 C 0.640625 1.992188 0.8125 1.539062 1.15625 1.15625 C 1.507812 0.769531 1.90625 0.484375 2.34375 0.296875 C 1.925781 0.160156 1.609375 -0.0195312 1.390625 -0.25 C 1.179688 -0.488281 1.078125 -0.796875 1.078125 -1.171875 C 1.078125 -1.609375 1.25 -2.007812 1.59375 -2.375 C 1.945312 -2.75 2.390625 -2.984375 2.921875 -3.078125 C 2.347656 -3.347656 1.894531 -3.722656 1.5625 -4.203125 C 1.226562 -4.691406 1.0625 -5.253906 1.0625 -5.890625 C 1.0625 -6.609375 1.25 -7.242188 1.625 -7.796875 C 2 -8.347656 2.484375 -8.773438 3.078125 -9.078125 C 3.679688 -9.390625 4.3125 -9.546875 4.96875 -9.546875 C 5.800781 -9.546875 6.582031 -9.320312 7.3125 -8.875 C 7.5 -9.40625 7.796875 -9.835938 8.203125 -10.171875 C 8.617188 -10.503906 9.066406 -10.671875 9.546875 -10.671875 C 9.859375 -10.671875 10.097656 -10.585938 10.265625 -10.421875 C 10.441406 -10.253906 10.53125 -10.023438 10.53125 -9.734375 C 10.53125 -9.566406 10.460938 -9.398438 10.328125 -9.234375 C 10.203125 -9.066406 10.019531 -8.984375 9.78125 -8.984375 C 9.570312 -8.984375 9.390625 -9.039062 9.234375 -9.15625 C 9.085938 -9.28125 9 -9.4375 8.96875 -9.625 C 8.664062 -9.59375 8.425781 -9.460938 8.25 -9.234375 C 8.082031 -9.003906 7.960938 -8.726562 7.890625 -8.40625 C 8.191406 -8.125 8.429688 -7.789062 8.609375 -7.40625 C 8.785156 -7.019531 8.875 -6.617188 8.875 -6.203125 C 8.875 -5.523438 8.691406 -4.914062 8.328125 -4.375 C 7.972656 -3.832031 7.492188 -3.40625 6.890625 -3.09375 C 6.296875 -2.78125 5.65625 -2.625 4.96875 -2.625 C 4.800781 -2.625 4.59375 -2.640625 4.34375 -2.671875 C 4.164062 -2.703125 3.957031 -2.71875 3.71875 -2.71875 C 3.3125 -2.71875 2.96875 -2.628906 2.6875 -2.453125 C 2.414062 -2.273438 2.28125 -2.054688 2.28125 -1.796875 C 2.28125 -1.441406 2.503906 -1.203125 2.953125 -1.078125 C 3.398438 -0.960938 4.171875 -0.890625 5.265625 -0.859375 C 6.773438 -0.773438 7.910156 -0.523438 8.671875 -0.109375 C 9.429688 0.296875 9.8125 0.972656 9.8125 1.921875 C 9.8125 2.554688 9.59375 3.109375 9.15625 3.578125 C 8.71875 4.046875 8.148438 4.398438 7.453125 4.640625 C 6.753906 4.890625 6.03125 5.015625 5.28125 5.015625 Z M 5.015625 -3.296875 C 5.679688 -3.296875 6.191406 -3.53125 6.546875 -4 C 6.898438 -4.46875 7.078125 -5.078125 7.078125 -5.828125 C 7.078125 -6.691406 6.882812 -7.421875 6.5 -8.015625 C 6.125 -8.609375 5.597656 -8.90625 4.921875 -8.90625 C 4.265625 -8.90625 3.75 -8.660156 3.375 -8.171875 C 3.007812 -7.679688 2.828125 -7.054688 2.828125 -6.296875 C 2.828125 -5.390625 3.019531 -4.660156 3.40625 -4.109375 C 3.800781 -3.566406 4.335938 -3.296875 5.015625 -3.296875 Z M 5.265625 4.296875 C 5.941406 4.296875 6.535156 4.207031 7.046875 4.03125 C 7.554688 3.851562 7.945312 3.609375 8.21875 3.296875 C 8.488281 2.992188 8.625 2.664062 8.625 2.3125 C 8.625 1.6875 8.320312 1.253906 7.71875 1.015625 C 7.125 0.785156 6.242188 0.648438 5.078125 0.609375 C 4.296875 0.585938 3.660156 0.539062 3.171875 0.46875 C 2.835938 0.6875 2.578125 0.957031 2.390625 1.28125 C 2.203125 1.601562 2.109375 1.941406 2.109375 2.296875 C 2.109375 2.898438 2.394531 3.382812 2.96875 3.75 C 3.539062 4.113281 4.304688 4.296875 5.265625 4.296875 Z M 5.265625 4.296875 "/></g></g></g><g fill="#1b0b3e" fill-opacity="1"><g transform="translate(250.855583, 65.369233)"><g><path d="M 5.296875 0.296875 C 4.441406 0.296875 3.671875 0.0976562 2.984375 -0.296875 C 2.304688 -0.703125 1.769531 -1.273438 1.375 -2.015625 C 0.976562 -2.765625 0.78125 -3.628906 0.78125 -4.609375 C 0.78125 -5.472656 0.976562 -6.285156 1.375 -7.046875 C 1.769531 -7.804688 2.320312 -8.410156 3.03125 -8.859375 C 3.738281 -9.316406 4.539062 -9.546875 5.4375 -9.546875 C 6.144531 -9.546875 6.78125 -9.390625 7.34375 -9.078125 C 7.914062 -8.773438 8.367188 -8.316406 8.703125 -7.703125 C 9.035156 -7.097656 9.203125 -6.351562 9.203125 -5.46875 L 2.6875 -5.34375 C 2.675781 -3.863281 2.921875 -2.707031 3.421875 -1.875 C 3.921875 -1.050781 4.691406 -0.640625 5.734375 -0.640625 C 6.304688 -0.640625 6.890625 -0.785156 7.484375 -1.078125 C 8.085938 -1.378906 8.550781 -1.75 8.875 -2.1875 L 9.3125 -1.8125 C 8.84375 -1.09375 8.234375 -0.5625 7.484375 -0.21875 C 6.742188 0.125 6.015625 0.296875 5.296875 0.296875 Z M 7.46875 -6.125 C 7.46875 -6.863281 7.300781 -7.5 6.96875 -8.03125 C 6.632812 -8.5625 6.132812 -8.828125 5.46875 -8.828125 C 3.9375 -8.828125 3.023438 -7.925781 2.734375 -6.125 Z M 7.46875 -6.125 "/></g></g></g><g fill="#1b0b3e" fill-opacity="1"><g transform="translate(260.892584, 65.369233)"><g><path d="M 0.8125 -0.5625 C 1.175781 -0.5625 1.429688 -0.648438 1.578125 -0.828125 C 1.734375 -1.003906 1.820312 -1.222656 1.84375 -1.484375 C 1.875 -1.753906 1.894531 -2.195312 1.90625 -2.8125 L 1.921875 -7.03125 C 1.921875 -7.550781 1.945312 -7.953125 2 -8.234375 L 0.6875 -8.171875 L 0.6875 -8.9375 C 1.414062 -8.9375 1.914062 -8.976562 2.1875 -9.0625 C 2.457031 -9.144531 2.6875 -9.269531 2.875 -9.4375 L 3.40625 -9.4375 C 3.425781 -9.207031 3.453125 -8.832031 3.484375 -8.3125 C 3.898438 -8.6875 4.375 -8.984375 4.90625 -9.203125 C 5.445312 -9.429688 5.976562 -9.546875 6.5 -9.546875 C 7.570312 -9.546875 8.351562 -9.207031 8.84375 -8.53125 C 9.34375 -7.863281 9.59375 -6.820312 9.59375 -5.40625 L 9.59375 -1.96875 C 9.59375 -1.40625 9.566406 -0.984375 9.515625 -0.703125 L 10.6875 -0.765625 L 10.6875 0 L 6.90625 0 L 6.90625 -0.5625 C 7.257812 -0.5625 7.515625 -0.648438 7.671875 -0.828125 C 7.828125 -1.003906 7.921875 -1.226562 7.953125 -1.5 C 7.984375 -1.78125 8 -2.21875 8 -2.8125 L 8 -5.40625 C 7.988281 -6.46875 7.816406 -7.265625 7.484375 -7.796875 C 7.148438 -8.335938 6.625 -8.609375 5.90625 -8.609375 C 5.457031 -8.609375 5.015625 -8.492188 4.578125 -8.265625 C 4.140625 -8.046875 3.78125 -7.757812 3.5 -7.40625 C 3.507812 -7.269531 3.515625 -7.03125 3.515625 -6.6875 L 3.5 -1.96875 C 3.5 -1.40625 3.472656 -0.984375 3.421875 -0.703125 L 4.59375 -0.765625 L 4.59375 0 L 0.8125 0 Z M 0.8125 -0.5625 "/></g></g></g><g fill="#1b0b3e" fill-opacity="1"><g transform="translate(272.13327, 65.369233)"><g><path d="M 5.328125 0.296875 C 4.492188 0.296875 3.726562 0.101562 3.03125 -0.28125 C 2.332031 -0.664062 1.78125 -1.210938 1.375 -1.921875 C 0.96875 -2.640625 0.765625 -3.488281 0.765625 -4.46875 C 0.765625 -5.332031 0.96875 -6.15625 1.375 -6.9375 C 1.789062 -7.71875 2.363281 -8.347656 3.09375 -8.828125 C 3.832031 -9.304688 4.664062 -9.546875 5.59375 -9.546875 C 6.257812 -9.546875 6.847656 -9.441406 7.359375 -9.234375 C 7.878906 -9.023438 8.285156 -8.75 8.578125 -8.40625 C 8.867188 -8.0625 9.015625 -7.6875 9.015625 -7.28125 C 9.015625 -6.988281 8.929688 -6.75 8.765625 -6.5625 C 8.609375 -6.382812 8.390625 -6.296875 8.109375 -6.296875 C 7.835938 -6.296875 7.632812 -6.382812 7.5 -6.5625 C 7.363281 -6.738281 7.296875 -6.925781 7.296875 -7.125 C 7.296875 -7.4375 7.390625 -7.6875 7.578125 -7.875 C 7.441406 -8.25 7.175781 -8.507812 6.78125 -8.65625 C 6.394531 -8.800781 6.007812 -8.875 5.625 -8.875 C 5.0625 -8.875 4.550781 -8.71875 4.09375 -8.40625 C 3.644531 -8.09375 3.289062 -7.640625 3.03125 -7.046875 C 2.769531 -6.460938 2.640625 -5.753906 2.640625 -4.921875 C 2.640625 -4.097656 2.769531 -3.363281 3.03125 -2.71875 C 3.300781 -2.082031 3.675781 -1.582031 4.15625 -1.21875 C 4.644531 -0.851562 5.203125 -0.671875 5.828125 -0.671875 C 6.390625 -0.671875 6.9375 -0.820312 7.46875 -1.125 C 8.007812 -1.425781 8.429688 -1.804688 8.734375 -2.265625 L 9.21875 -1.890625 C 8.757812 -1.171875 8.171875 -0.625 7.453125 -0.25 C 6.734375 0.113281 6.023438 0.296875 5.328125 0.296875 Z M 5.328125 0.296875 "/></g></g></g><g fill="#1b0b3e" fill-opacity="1"><g transform="translate(281.892472, 65.369233)"><g><path d="M 2.234375 5.015625 C 1.828125 5.015625 1.492188 4.914062 1.234375 4.71875 C 0.984375 4.519531 0.859375 4.242188 0.859375 3.890625 C 0.859375 3.648438 0.929688 3.441406 1.078125 3.265625 C 1.234375 3.085938 1.4375 3 1.6875 3 C 1.9375 3 2.117188 3.082031 2.234375 3.25 C 2.347656 3.425781 2.40625 3.609375 2.40625 3.796875 C 2.40625 3.910156 2.398438 4 2.390625 4.0625 C 2.421875 4.082031 2.488281 4.09375 2.59375 4.09375 C 2.75 4.09375 2.910156 4.03125 3.078125 3.90625 C 3.242188 3.78125 3.394531 3.601562 3.53125 3.375 C 3.820312 2.90625 4.253906 1.847656 4.828125 0.203125 L 1.9375 -5.984375 C 1.425781 -7.085938 1.101562 -7.9375 0.96875 -8.53125 L 0.078125 -8.5 L 0.078125 -9.25 L 3.90625 -9.25 L 3.90625 -8.703125 L 3.828125 -8.703125 C 3.253906 -8.660156 2.96875 -8.414062 2.96875 -7.96875 C 2.96875 -7.65625 3.113281 -7.171875 3.40625 -6.515625 L 5.578125 -1.875 C 5.941406 -2.914062 6.472656 -4.460938 7.171875 -6.515625 C 7.585938 -7.734375 7.890625 -8.421875 8.078125 -8.578125 L 6.796875 -8.5 L 6.796875 -9.25 L 9.703125 -9.25 L 9.703125 -8.703125 C 9.285156 -8.546875 8.960938 -8.289062 8.734375 -7.9375 C 8.503906 -7.582031 8.253906 -7.035156 7.984375 -6.296875 L 5.671875 0.171875 C 5.222656 1.410156 4.851562 2.347656 4.5625 2.984375 C 4.269531 3.617188 3.941406 4.113281 3.578125 4.46875 C 3.210938 4.832031 2.765625 5.015625 2.234375 5.015625 Z M 2.234375 5.015625 "/></g></g></g><g fill="#1b0b3e" fill-opacity="1"><g transform="translate(291.680393, 65.369233)"><g/></g></g></g></g></svg>